<svg width="119" height="37" viewBox="0 0 119 37" fill="none" xmlns="http://www.w3.org/2000/svg">
<path fill-rule="evenodd" clip-rule="evenodd" d="M11.3933 0.5C5.10095 0.5 0 5.60095 0 11.8933V25.1067C0 31.399 5.10095 36.5 11.3933 36.5H24.6067C30.899 36.5 36 31.399 36 25.1067V11.8933C36 5.60095 30.899 0.5 24.6067 0.5H11.3933ZM10.1101 24.1298C5.76554 19.7853 5.76554 12.7414 10.1101 8.3969C14.4546 4.05238 21.4984 4.05238 25.843 8.3969C30.1875 12.7414 30.1875 19.7853 25.843 24.1298L18.1354 31.8373C18.0477 31.9251 17.9054 31.9251 17.8176 31.8373L10.1101 24.1298ZM12.4153 21.5068C12.4153 21.6831 12.5583 21.826 12.7346 21.826H17.9778C21.0498 21.826 23.5402 19.3356 23.5402 16.2636C23.5402 13.1915 21.0498 10.7011 17.9778 10.7011C14.9057 10.7011 12.4153 13.1915 12.4153 16.2636V21.5068Z" fill="#002551"/>
<path d="M61.1009 10.1646C59.2922 8.58681 56.9448 7.62474 54.251 7.62474C48.0168 7.62474 43.3604 12.3196 43.3604 18.5923C43.3604 24.865 48.0168 29.5984 54.251 29.5984C56.9063 29.5984 59.2152 28.6748 60.9855 27.097L61.4857 28.9827H65.8728V8.20198H61.6781L61.1009 10.1646ZM54.7128 24.2878C51.4417 24.2878 49.0558 21.8249 49.0558 18.5923C49.0558 15.3213 51.4417 12.8969 54.7128 12.8969C57.9838 12.8969 60.3697 15.3213 60.3697 18.5923C60.3697 21.8634 57.9838 24.2878 54.7128 24.2878Z" fill="#002551"/>
<path d="M80.7052 23.9799C78.6271 23.9799 77.4726 22.8254 77.4726 20.8243V12.743H83.1296V8.24047H77.3956V2.8144H76.3181L68.1213 11.5115V12.743H71.8541V21.594C71.8541 26.2119 74.6634 29.0212 79.2428 29.0212H83.245V24.0184L80.7052 23.9799Z" fill="#002551"/>
<path d="M92.6998 28.9827V0.736328H87.0813V28.9827H92.6998Z" fill="#002551"/>
<path d="M107.251 21.0167L101.71 8.24047H95.5911L104.404 27.4049L104.327 27.5588C103.057 30.7144 102.364 31.4456 99.6318 31.4456H97.7076V36.4868H100.017C104.673 36.4868 106.867 34.3703 109.368 28.7133L118.411 8.20198H112.447L107.251 21.0167Z" fill="#002551"/>
</svg>
